<mxfile host="app.diagrams.net" modified="2020-12-15T03:20:47.700Z" agent="5.0 (Macintosh; Intel Mac OS X 10_15_7) AppleWebKit/537.36 (KHTML, like Gecko) Chrome/87.0.4280.88 Safari/537.36" etag="bbzRdXkVTZiXLmXogYwo" version="14.0.1" type="github">
  <diagram id="sQfRUy7SHaYGJCjr7FOv" name="Page-1">
    <mxGraphModel dx="1426" dy="759" grid="0" gridSize="10" guides="1" tooltips="1" connect="1" arrows="1" fold="1" page="1" pageScale="1" pageWidth="827" pageHeight="1169" background="none" math="0" shadow="0">
      <root>
        <mxCell id="0" />
        <mxCell id="1" parent="0" />
        <mxCell id="vU9GHeNMobwRgTyBWj43-1" value="" style="rounded=1;whiteSpace=wrap;html=1;align=left;fillColor=#0066CC;strokeColor=none;" parent="1" vertex="1">
          <mxGeometry x="105" y="201" width="618" height="280" as="geometry" />
        </mxCell>
        <mxCell id="vU9GHeNMobwRgTyBWj43-2" value="" style="rounded=1;whiteSpace=wrap;html=1;align=left;labelPosition=left;verticalLabelPosition=middle;verticalAlign=middle;" parent="1" vertex="1">
          <mxGeometry x="240" y="384.5" width="465" height="71" as="geometry" />
        </mxCell>
        <mxCell id="vU9GHeNMobwRgTyBWj43-3" value="" style="rounded=1;whiteSpace=wrap;html=1;align=left;labelPosition=left;verticalLabelPosition=middle;verticalAlign=middle;" parent="1" vertex="1">
          <mxGeometry x="240" y="225" width="465" height="71" as="geometry" />
        </mxCell>
        <mxCell id="vU9GHeNMobwRgTyBWj43-4" value="formatter" style="rounded=1;whiteSpace=wrap;html=1;fillColor=#66B2FF;" parent="1" vertex="1">
          <mxGeometry x="264" y="241" width="80" height="39" as="geometry" />
        </mxCell>
        <mxCell id="vU9GHeNMobwRgTyBWj43-5" value="&lt;span&gt;processor 1&lt;/span&gt;" style="rounded=1;whiteSpace=wrap;html=1;fillColor=#A680B8;" parent="1" vertex="1">
          <mxGeometry x="374" y="241" width="80" height="39" as="geometry" />
        </mxCell>
        <mxCell id="vU9GHeNMobwRgTyBWj43-6" value="&lt;span&gt;processor N&lt;/span&gt;" style="rounded=1;whiteSpace=wrap;html=1;fillColor=#A680B8;" parent="1" vertex="1">
          <mxGeometry x="504" y="242" width="77" height="39" as="geometry" />
        </mxCell>
        <mxCell id="vU9GHeNMobwRgTyBWj43-7" value="gnmi collector" style="rounded=1;whiteSpace=wrap;html=1;strokeColor=#6c8ebf;fillColor=#99CCFF;" parent="1" vertex="1">
          <mxGeometry x="130" y="321" width="77" height="40" as="geometry" />
        </mxCell>
        <mxCell id="vU9GHeNMobwRgTyBWj43-8" value="formatter" style="rounded=1;whiteSpace=wrap;html=1;fillColor=#66B2FF;" parent="1" vertex="1">
          <mxGeometry x="264" y="400" width="80" height="40" as="geometry" />
        </mxCell>
        <mxCell id="vU9GHeNMobwRgTyBWj43-9" value="&lt;span&gt;processor 1&lt;/span&gt;" style="rounded=1;whiteSpace=wrap;html=1;fillColor=#A680B8;" parent="1" vertex="1">
          <mxGeometry x="374" y="401" width="80" height="40" as="geometry" />
        </mxCell>
        <mxCell id="vU9GHeNMobwRgTyBWj43-10" value="&lt;span&gt;processor M&lt;/span&gt;" style="rounded=1;whiteSpace=wrap;html=1;fillColor=#A680B8;" parent="1" vertex="1">
          <mxGeometry x="504" y="401" width="77" height="38" as="geometry" />
        </mxCell>
        <mxCell id="vU9GHeNMobwRgTyBWj43-11" value="" style="endArrow=classic;html=1;exitX=1;exitY=0.5;exitDx=0;exitDy=0;entryX=0;entryY=0.5;entryDx=0;entryDy=0;strokeColor=#0000FF;" parent="1" source="vU9GHeNMobwRgTyBWj43-7" target="vU9GHeNMobwRgTyBWj43-4" edge="1">
          <mxGeometry width="50" height="50" relative="1" as="geometry">
            <mxPoint x="411" y="428" as="sourcePoint" />
            <mxPoint x="461" y="378" as="targetPoint" />
          </mxGeometry>
        </mxCell>
        <mxCell id="vU9GHeNMobwRgTyBWj43-12" value="" style="endArrow=classic;html=1;exitX=1;exitY=0.5;exitDx=0;exitDy=0;entryX=0;entryY=0.5;entryDx=0;entryDy=0;strokeColor=#0000FF;" parent="1" source="vU9GHeNMobwRgTyBWj43-7" target="vU9GHeNMobwRgTyBWj43-8" edge="1">
          <mxGeometry width="50" height="50" relative="1" as="geometry">
            <mxPoint x="232" y="342" as="sourcePoint" />
            <mxPoint x="280" y="268" as="targetPoint" />
          </mxGeometry>
        </mxCell>
        <mxCell id="vU9GHeNMobwRgTyBWj43-13" value="" style="endArrow=classic;html=1;exitX=1;exitY=0.5;exitDx=0;exitDy=0;entryX=0;entryY=0.5;entryDx=0;entryDy=0;strokeColor=#0000FF;" parent="1" source="vU9GHeNMobwRgTyBWj43-4" target="vU9GHeNMobwRgTyBWj43-5" edge="1">
          <mxGeometry width="50" height="50" relative="1" as="geometry">
            <mxPoint x="232" y="351" as="sourcePoint" />
            <mxPoint x="274" y="270.5" as="targetPoint" />
          </mxGeometry>
        </mxCell>
        <mxCell id="vU9GHeNMobwRgTyBWj43-14" value="" style="endArrow=classic;html=1;exitX=1;exitY=0.5;exitDx=0;exitDy=0;entryX=0;entryY=0.5;entryDx=0;entryDy=0;strokeColor=#0000FF;" parent="1" source="vU9GHeNMobwRgTyBWj43-8" target="vU9GHeNMobwRgTyBWj43-9" edge="1">
          <mxGeometry width="50" height="50" relative="1" as="geometry">
            <mxPoint x="354" y="270.5" as="sourcePoint" />
            <mxPoint x="394" y="270.5" as="targetPoint" />
          </mxGeometry>
        </mxCell>
        <mxCell id="vU9GHeNMobwRgTyBWj43-15" value="" style="endArrow=classic;html=1;exitX=1;exitY=0.5;exitDx=0;exitDy=0;strokeColor=#0000FF;dashed=1;" parent="1" source="vU9GHeNMobwRgTyBWj43-9" target="vU9GHeNMobwRgTyBWj43-10" edge="1">
          <mxGeometry width="50" height="50" relative="1" as="geometry">
            <mxPoint x="354" y="431" as="sourcePoint" />
            <mxPoint x="394" y="431" as="targetPoint" />
          </mxGeometry>
        </mxCell>
        <mxCell id="vU9GHeNMobwRgTyBWj43-16" value="" style="endArrow=classic;html=1;exitX=1;exitY=0.5;exitDx=0;exitDy=0;strokeColor=#0000FF;dashed=1;" parent="1" source="vU9GHeNMobwRgTyBWj43-5" edge="1">
          <mxGeometry width="50" height="50" relative="1" as="geometry">
            <mxPoint x="364" y="441" as="sourcePoint" />
            <mxPoint x="503" y="261" as="targetPoint" />
          </mxGeometry>
        </mxCell>
        <mxCell id="vU9GHeNMobwRgTyBWj43-17" value="" style="endArrow=classic;html=1;exitX=1;exitY=0.5;exitDx=0;exitDy=0;strokeColor=#0000FF;entryX=0;entryY=0.5;entryDx=0;entryDy=0;" parent="1" source="vU9GHeNMobwRgTyBWj43-6" target="vU9GHeNMobwRgTyBWj43-22" edge="1">
          <mxGeometry width="50" height="50" relative="1" as="geometry">
            <mxPoint x="191" y="351" as="sourcePoint" />
            <mxPoint x="704" y="262" as="targetPoint" />
          </mxGeometry>
        </mxCell>
        <mxCell id="vU9GHeNMobwRgTyBWj43-18" value="" style="endArrow=classic;html=1;exitX=1;exitY=0.5;exitDx=0;exitDy=0;strokeColor=#0000FF;entryX=0;entryY=0.5;entryDx=0;entryDy=0;" parent="1" source="vU9GHeNMobwRgTyBWj43-10" target="vU9GHeNMobwRgTyBWj43-23" edge="1">
          <mxGeometry width="50" height="50" relative="1" as="geometry">
            <mxPoint x="591" y="271.5" as="sourcePoint" />
            <mxPoint x="706" y="420" as="targetPoint" />
          </mxGeometry>
        </mxCell>
        <mxCell id="vU9GHeNMobwRgTyBWj43-19" value="" style="endArrow=classic;html=1;entryX=0;entryY=0.5;entryDx=0;entryDy=0;strokeColor=#0000FF;" parent="1" target="vU9GHeNMobwRgTyBWj43-7" edge="1">
          <mxGeometry width="50" height="50" relative="1" as="geometry">
            <mxPoint x="64" y="341" as="sourcePoint" />
            <mxPoint x="274" y="270.5" as="targetPoint" />
          </mxGeometry>
        </mxCell>
        <mxCell id="vU9GHeNMobwRgTyBWj43-20" value="output 1" style="text;html=1;strokeColor=none;fillColor=none;align=center;verticalAlign=middle;whiteSpace=wrap;rounded=0;" parent="1" vertex="1">
          <mxGeometry x="240" y="205" width="50" height="20" as="geometry" />
        </mxCell>
        <mxCell id="vU9GHeNMobwRgTyBWj43-21" value="output 2" style="text;html=1;strokeColor=none;fillColor=none;align=center;verticalAlign=middle;whiteSpace=wrap;rounded=0;" parent="1" vertex="1">
          <mxGeometry x="248" y="358" width="50" height="20" as="geometry" />
        </mxCell>
        <mxCell id="vU9GHeNMobwRgTyBWj43-22" value="writer" style="rounded=1;whiteSpace=wrap;html=1;fillColor=#66B2FF;" parent="1" vertex="1">
          <mxGeometry x="605" y="242" width="80" height="39" as="geometry" />
        </mxCell>
        <mxCell id="vU9GHeNMobwRgTyBWj43-23" value="writer" style="rounded=1;whiteSpace=wrap;html=1;fillColor=#66B2FF;" parent="1" vertex="1">
          <mxGeometry x="605" y="401" width="80" height="39" as="geometry" />
        </mxCell>
        <mxCell id="vU9GHeNMobwRgTyBWj43-24" value="" style="endArrow=classic;html=1;exitX=1;exitY=0.5;exitDx=0;exitDy=0;strokeColor=#0000FF;" parent="1" source="vU9GHeNMobwRgTyBWj43-22" edge="1">
          <mxGeometry width="50" height="50" relative="1" as="geometry">
            <mxPoint x="591" y="271.5" as="sourcePoint" />
            <mxPoint x="760" y="262" as="targetPoint" />
          </mxGeometry>
        </mxCell>
        <mxCell id="vU9GHeNMobwRgTyBWj43-25" value="" style="endArrow=classic;html=1;exitX=1;exitY=0.5;exitDx=0;exitDy=0;strokeColor=#0000FF;" parent="1" source="vU9GHeNMobwRgTyBWj43-23" edge="1">
          <mxGeometry width="50" height="50" relative="1" as="geometry">
            <mxPoint x="695" y="271.5" as="sourcePoint" />
            <mxPoint x="760" y="421" as="targetPoint" />
          </mxGeometry>
        </mxCell>
        <mxCell id="vU9GHeNMobwRgTyBWj43-26" value="&lt;b&gt;&lt;font style=&quot;font-size: 14px&quot;&gt;gNMIc&lt;/font&gt;&lt;/b&gt;" style="text;html=1;strokeColor=none;fillColor=none;align=center;verticalAlign=middle;whiteSpace=wrap;rounded=0;" parent="1" vertex="1">
          <mxGeometry x="117" y="209" width="73" height="36" as="geometry" />
        </mxCell>
      </root>
    </mxGraphModel>
  </diagram>
</mxfile>
